<svg id="Layer_1" data-name="Layer 1" xmlns="http://www.w3.org/2000/svg" viewBox="0 0 1915.99 330.6" width="160" height="28">
    <defs>
        <style>.cls-1{fill:#ff9869;}.cls-2{fill:#fff;}</style>
    </defs>
    <path class="cls-1"
          d="M1838,156.84c19.76,0,33.47,14.34,34.75,35.06H1800C1803.86,170.55,1815,156.84,1838,156.84Zm3.51,139.3c42.07,0,67.9-24.54,74-53.55H1872.8c-4.79,12.43-14.67,20.08-31.56,20.08-24.55,0-38.57-15.62-41.76-40.8H1918c0-58.34-28-98.5-80.65-98.5-47.81,0-80.65,37.61-80.65,86.07,0,48.77,30.58,86.7,84.78,86.7Zm-166.8,0c40.81,0,68.86-19.76,68.86-52.59,0-38.26-30.29-45.91-57.7-51.65-23.27-4.78-44.95-6.05-44.95-20.08,0-11.79,11.16-18.17,28-18.17,18.49,0,29.65,6.38,31.56,23.91h39.21c-3.19-32.83-27.09-54.19-70.13-54.19-37.3,0-66.62,16.89-66.62,52.28,0,35.7,28.69,43.67,58,49.41,22.32,4.46,43,6.05,43,21.67,0,11.48-10.84,18.81-30,18.81-19.44,0-32.83-8.29-35.7-27.09h-40.16c2.65,34.74,29.1,57.69,76.6,57.69ZM1537.09,102.33h43.35V63.44h-43.35Zm0,189h43.35V127.83h-43.35Zm-238.13,0h42.71l28-122.09c3.83-16.58,7.34-40.48,7.34-40.48h.63s4.15,23.9,8,40.48l27.74,122.09h43l65-227.92H1475.8l-28.69,112.84C1442.64,196,1436,226.3,1436,226.3h-.64s-5.74-28.69-10.52-48.77L1400,63.44h-44.63l-24.86,114.44C1325.73,198,1320,226.33,1320,226.33h-.64s-5.42-30.28-9.88-49.73L1279.83,63.44h-47.18Z"
          transform="translate(-2.01 -0.22)"/>
    <path class="cls-2"
          d="M979.23,291.36h43.35v-95c0-21.68,11.8-35.71,29.33-35.71,15.94,0,25.18,9.57,25.18,28.06V291.36h43.36v-95c0-21.68,11.15-35.71,29.32-35.71,15.94,0,25.19,9.57,25.19,28.06V291.36h43.35v-110c0-35.7-19.44-58-53.87-58-20.72,0-37.94,10.84-49.09,28.69h-.64c-8-17.22-24.55-28.69-45.27-28.69-22.63,0-38.57,11.47-47.5,26.46h-1v-22H979.23Zm-70-163.53H867.47V291.36h43.35V211.67c0-34.43,20.41-49.41,48.78-46.54h.95V127.19c-2.55-1-5.42-1.27-10.2-1.27-19.12,0-30.28,9.56-40.16,28.05h-1ZM760.53,264.9c-15.3,0-25.5-5.42-25.5-20.72s11.16-20.4,33.79-25.5c10.84-2.55,22.63-5.1,30.29-9.56v24.54C799.11,249.6,785.4,264.9,760.53,264.9Zm43.36,26.46h41.76v-1.59c-3.83-2.87-5.74-10.2-5.74-22.63V183.93c0-38.25-19.77-60.24-68.86-60.24-47.81,0-69.17,25.18-70.45,53.87h38.58c1.27-15.62,11.15-22.95,31.55-22.95,18.17,0,27.42,7.65,27.42,19.44,0,12.43-12.43,14.67-39.53,18.49-36.34,5.1-65.67,16.58-65.67,52.6,0,32.52,23.59,50.05,57.06,50.05,28.06,0,39.85-9.57,48.14-22h.64C799.74,280.52,801.34,288.17,803.89,291.36Zm-274.41,0H575.7V197h99.14V157.48H575.7V102.65h117V63.44H529.48Z"
          transform="translate(-2.01 -0.22)"/>
    <path class="cls-2"
          d="M186.12,130.51c14.72-15.59,43.88-33.52,101-38a103,103,0,0,0-69.24-26.62c-3.26,0-6.48.17-9.66.47C195,92.44,188.62,113.61,186.12,130.51Z"
          transform="translate(-2.01 -0.22)"/>
    <path class="cls-2"
          d="M224.14,125.29c21.22,1.87,55.45,14.51,94.89,65.59a103.94,103.94,0,0,0,2.28-21.61,102.78,102.78,0,0,0-19.19-60C265.82,110.63,241,117.27,224.14,125.29Z"
          transform="translate(-2.01 -0.22)"/>
    <path class="cls-2"
          d="M172.74,180.66c-7.62-19.52-11.44-54.47,13.81-109.93a103.68,103.68,0,0,0-62.86,56C141.87,155.21,159,171.45,172.74,180.66Z"
          transform="translate(-2.01 -0.22)"/>
    <path class="cls-2"
          d="M266.39,162.16c6,20.6,6.69,54.64-17.73,105.85a103.67,103.67,0,0,0,63.65-56.56C295.6,188.05,280.08,172.47,266.39,162.16Z"
          transform="translate(-2.01 -0.22)"/>
    <path class="cls-2"
          d="M251.08,203.28c-13.57,16.18-42.75,36.51-104.53,40.77a103,103,0,0,0,71.36,28.61c3,0,5.93-.15,8.85-.4C241.83,243.76,248.71,221,251.08,203.28Z"
          transform="translate(-2.01 -0.22)"/>
    <path class="cls-2"
          d="M212.12,210.75c-1.11.07-2.29.13-3.6.13-17.51,0-53.07-8.07-91.8-62.88a103.6,103.6,0,0,0,15.44,79.06C169.9,226,195.22,219.07,212.12,210.75Z"
          transform="translate(-2.01 -0.22)"/>
    <path class="cls-2"
          d="M383,183.05c.06-.59.11-1.17.16-1.76.19-2,.35-4,.46-6,0-.69.09-1.39.12-2.08.12-2.57.2-5.14.2-7.72C384,74.36,309.83.22,218.7.22A165.47,165.47,0,0,0,69.84,93.71c.27,1,.53,2.09.81,3.18A157.44,157.44,0,0,0,79.45,124C97.36,64,153,20.19,218.7,20.19,298.82,20.19,364,85.37,364,165.5c0,2.28-.07,4.54-.17,6.79,0,.61-.07,1.21-.11,1.82-.1,1.77-.23,3.53-.4,5.29-.05.5-.09,1-.15,1.52-7.72,72.9-69.57,129.89-144.48,129.89A145.44,145.44,0,0,1,88.63,230.19a42.39,42.39,0,0,0,11-19.58c3-11.47,2.94-30.14-14.11-53.94a164.23,164.23,0,0,1-10-15.8h0A144.4,144.4,0,0,1,65,117.39v-.13c-.36-1.05-.69-2.08-1-3.09l-.12-.34c-.34-1.1-.67-2.17-1-3.22h0c-1.2-4.08-2.12-7.77-2.94-11C57.36,89.46,56.21,85.85,53.24,85a1.82,1.82,0,0,0-.33,0c-1.26,0-5,1.1-11.11,6.49-19.23,16.92-44.89,61-38.9,102.05,3,20.22,11.81,34.41,26.31,42.18,9.11,4.88,19.42,6.47,28.94,6-.85-2.25-1.67-4.5-2.44-6.77-2.94-8.59-5.47-17.27-7.53-26a247.91,247.91,0,0,1-4.77-26.53c-1.09-8.91-1.78-17.82-2.2-26.72a1.74,1.74,0,0,1,3.45-.4v.08c.79,4.34,1.45,8.68,2.35,13s1.79,8.6,2.91,12.84c2,8.53,4.62,16.88,7.39,25.13q3.22,9.45,7.16,18.59c23.9,61.89,84,105.93,154.22,105.93A165.15,165.15,0,0,0,353.52,261l.09.07A163.91,163.91,0,0,0,383,183.05Z"
          transform="translate(-2.01 -0.22)"/>
</svg>
