<svg width="200" height="408" viewBox="0 0 200 408" fill="none" xmlns="http://www.w3.org/2000/svg">
<path d="M104.831 318.416C104.834 318.418 104.837 318.421 104.84 318.423C119.351 331.183 118.107 356.321 102.061 374.57C86.0145 392.819 61.2424 397.269 46.7309 384.509C46.728 384.507 46.7251 384.504 46.7222 384.502L104.831 318.416Z" fill="#FFD976"/>
<path d="M199.185 181.353C199.18 181.361 199.175 181.369 199.17 181.377C173.71 220.305 113.295 225.849 64.2297 193.76C15.1648 161.67 -3.97045 104.098 21.4901 65.1689C21.4952 65.1611 21.5003 65.1533 21.5054 65.1455L199.185 181.353Z" fill="#3F9385"/>
<path d="M141.186 215.081C141.177 215.082 141.167 215.083 141.157 215.084C93.5081 221.142 48.7828 178.085 41.2606 118.915C33.7384 59.7441 66.2679 6.86635 113.917 0.808815C113.927 0.807602 113.936 0.806391 113.946 0.805182L141.186 215.081Z" fill="#6DEDBE"/>
<path d="M126.747 293.853C126.745 293.857 126.744 293.86 126.742 293.864C118.956 311.55 94.6151 317.949 72.3744 308.158C50.1338 298.367 38.4159 276.092 46.2019 258.407C46.2034 258.403 46.205 258.4 46.2065 258.396L126.747 293.853Z" fill="#FF9869"/>
</svg>
