<svg width="291" height="359" viewBox="0 0 291 359" fill="none" xmlns="http://www.w3.org/2000/svg">
<path d="M106.852 85.6749C102.783 90.911 104.533 93.8655 106.413 96.4964C108.996 98.7068 115.982 98.4459 121.082 94.94C126.181 91.4341 122.592 90.1074 120.305 85.6655C116.961 79.1711 111.939 79.1298 106.852 85.6749Z" fill="#FFD976"/>
<path d="M228.522 18.4782C221.575 14.2231 215.078 18.2727 209.275 28.798C206.388 34.0346 198.154 51.4466 203.73 55.5994C206.995 58.0313 218.279 49.1958 224.881 39.9643C231.483 30.7328 235.816 22.9459 228.522 18.4782Z" fill="#3F9385"/>
<path d="M273.381 75.5391C267.817 77.7777 264.333 81.6964 264.604 84.6079C265.776 86.6002 270.585 87.9508 276.167 87.5334C281.748 87.116 285.008 85.1422 285.451 80.6454C285.894 76.1486 280.336 72.7409 273.381 75.5391Z" fill="#FFD976"/>
<path d="M15.4172 330.493C15.1817 336.486 17.3307 341.269 20.0979 342.214C22.3956 341.96 25.5965 338.125 27.5006 332.862C29.4047 327.599 28.9383 323.817 25.0169 321.572C21.0955 319.327 15.7115 323.002 15.4172 330.493Z" fill="#FFD976"/>
<path d="M152.674 173.81C145.529 181.13 145.149 186.636 147.573 190.994C150.773 193.298 156.844 195.105 165.269 190.616C173.694 186.126 177.424 180.804 175.023 173.481C172.622 166.158 161.606 164.66 152.674 173.81Z" fill="#12373D"/>
<path d="M185.353 123.787C178.738 126.391 173.295 124.824 169.253 124.802C167.51 124.704 166.895 123.042 168.98 120.552C171.582 117.445 182.688 109.648 189.569 108.24C196.451 106.832 198.855 105.172 201.31 109.417C203.765 113.663 193.623 120.533 185.353 123.787Z" fill="#FF9869"/>
<path d="M26.5143 208.182C23.4624 214.603 18.418 217.178 15.4517 219.924C14.1116 221.043 12.5265 220.25 12.3481 217.006C12.1256 212.96 14.907 199.679 18.9701 193.949C23.0332 188.22 23.6539 185.365 28.3474 186.787C33.0409 188.21 30.3291 200.156 26.5143 208.182Z" fill="#3F9385"/>
<path d="M91.9176 178.398C96.707 174.352 100.036 167.769 95.6367 165.481C90.1119 162.607 71.2378 178.923 74.0305 183.007C76.789 187.041 87.1282 182.445 91.9176 178.398Z" fill="#FF9869"/>
</svg>
