<svg width="185" height="271" viewBox="0 0 185 271" fill="none" xmlns="http://www.w3.org/2000/svg">
<path d="M101.961 265.023C95.4207 266.12 93.6507 263.177 92.2268 260.274C91.507 256.951 95.0519 250.926 100.558 248.101C106.064 245.276 105.529 249.065 108.353 253.186C112.483 259.211 110.136 263.652 101.961 265.023Z" fill="#FFD976"/>
<path d="M174.345 2.68753C182.24 4.69507 183.873 12.1746 180.382 23.6752C178.645 29.3971 171.918 47.4448 165.053 46.3485C161.032 45.7065 159.488 31.4584 161.494 20.2879C163.501 9.11747 166.055 0.579715 174.345 2.68753Z" fill="#3F9385"/>
<path d="M116.484 79.4797C115.736 85.4304 112.834 89.7975 109.95 90.2775C107.725 89.6511 105.194 85.3447 104.176 79.841C103.158 74.3374 104.236 70.6826 108.472 69.109C112.708 67.5354 117.418 72.0413 116.484 79.4797Z" fill="#FFD976"/>
<path d="M77.718 175.341C85.159 180.371 83.7509 189.21 75.2944 200.662C71.0869 206.359 56.5065 223.886 49.7659 220.229C45.8186 218.088 50.1418 201.808 56.9042 190.192C63.6666 178.575 69.9054 170.06 77.718 175.341Z" fill="#3F9385"/>
<path d="M56.9929 127.409C53.8639 137.148 49.1748 140.059 44.1886 139.954C40.6562 138.202 36.2195 133.681 36.2483 124.135C36.277 114.589 39.2369 108.803 46.8328 107.5C54.4288 106.198 60.9042 115.236 56.9929 127.409Z" fill="#12373D"/>
<path d="M122.579 176.992C119.324 183.313 120.336 188.885 119.952 192.909C119.874 194.653 121.466 195.432 124.154 193.607C127.506 191.331 136.38 181.065 138.472 174.36C140.564 167.654 142.457 165.429 138.48 162.56C134.502 159.691 126.648 169.092 122.579 176.992Z" fill="#FF9869"/>
<path d="M8.05892 236.802C9.78859 230.775 14.43 225.042 18.3197 228.118C23.2045 231.981 16.0508 255.882 11.181 255.008C6.37091 254.144 6.32924 242.829 8.05892 236.802Z" fill="#FF9869"/>
</svg>
