<svg width="175" height="326" viewBox="0 0 175 326" fill="none" xmlns="http://www.w3.org/2000/svg">
<path d="M52.7231 112.373C59.4653 107.86 62.9198 110.252 65.968 112.773C68.4422 116.117 67.5195 124.621 62.7996 130.541C58.0797 136.462 56.771 131.967 51.5479 128.791C43.9111 124.148 44.2952 118.015 52.7231 112.373Z" fill="#FFD976"/>
<path d="M27.312 321.983C17.569 319.88 15.2402 310.808 18.9962 296.592C20.865 289.518 28.2866 267.153 36.7291 268.187C41.6731 268.793 44.1957 286.145 42.2401 299.892C40.2844 313.639 37.5416 324.191 27.312 321.983Z" fill="white"/>
<path d="M66.7346 236.421C69.9479 229.824 75.0318 225.911 78.5618 226.493C80.8918 228.097 82.124 234.082 81.1318 240.858C80.1396 247.634 77.4488 251.441 71.9224 251.593C66.3961 251.744 62.718 244.667 66.7346 236.421Z" fill="#6EDFB6"/>
<path d="M153.235 100.743C160.715 94.393 166.008 94.3959 170.017 97.0058C172.008 100.221 173.334 106.151 168.477 113.913C163.621 121.675 153.243 129.718 146.395 126.934C139.548 124.149 143.885 108.68 153.235 100.743Z" fill="white"/>
<path d="M22.6911 216.37C26.6898 204.862 21.3165 192.094 21.6797 185.455C21.722 182.613 14.9322 181.9 11.5179 185.934C7.25918 190.965 0.830848 211.219 -1.6512 222.873C-4.13325 234.528 -9.74147 242.245 -4.50259 245.25C0.736291 248.256 17.6927 230.754 22.6911 216.37Z" fill="#103E41"/>
<path d="M143.453 26.4481C147.181 18.5895 145.721 11.816 146.03 6.8806C146.055 4.74422 144.077 3.85481 140.864 6.19394C136.856 9.11162 126.415 22.0188 124.125 30.3017C121.834 38.5845 119.607 41.3809 124.586 44.7306C129.564 48.0803 138.793 36.2715 143.453 26.4481Z" fill="#6EDFB6"/>
</svg>
