<svg width="267" height="406" viewBox="0 0 267 406" fill="none" xmlns="http://www.w3.org/2000/svg">
<path d="M13.5499 375.383C6.92634 375.704 5.51448 372.574 4.44153 369.524C4.11721 366.139 8.34553 360.572 14.1454 358.414C19.9453 356.255 18.9684 359.955 21.289 364.379C24.6821 370.848 21.8295 374.982 13.5499 375.383Z" fill="#FFD976"/>
<path d="M244.367 24.8764C252.398 26.2447 254.624 33.5693 252.066 45.3127C250.794 51.1554 245.535 69.6842 238.604 69.1417C234.545 68.824 231.864 54.7455 232.968 43.4501C234.073 32.1548 235.934 23.4398 244.367 24.8764Z" fill="#3F9385"/>
<path d="M242.846 199.211C238.592 203.44 233.617 205.094 231.048 203.696C229.681 201.832 230.338 196.881 232.925 191.917C235.512 186.954 238.612 184.738 242.918 186.106C247.225 187.474 248.162 193.925 242.846 199.211Z" fill="#FFD976"/>
<path d="M176.916 133.104C184.626 137.711 183.713 146.614 175.909 158.52C172.026 164.444 158.447 182.757 151.513 179.482C147.452 177.564 150.86 161.069 156.963 149.093C163.067 137.117 168.82 128.267 176.916 133.104Z" fill="#3F9385"/>
<path d="M112.114 246.212C107.863 255.515 102.864 257.854 97.9248 257.164C94.6227 255.01 90.748 249.999 91.8983 240.522C93.0486 231.045 96.6679 225.647 104.364 225.246C112.061 224.846 117.429 234.582 112.114 246.212Z" fill="#12373D"/>
<path d="M187.535 291.039C183.56 296.933 183.91 302.586 183.056 306.536C182.774 308.26 184.263 309.221 187.146 307.724C190.742 305.857 200.761 296.705 203.627 290.292C206.492 283.879 208.634 281.892 205.021 278.575C201.409 275.258 192.504 283.671 187.535 291.039Z" fill="white"/>
<path d="M85.5949 317.539C91.595 315.719 98.9295 316.504 98.4584 321.441C97.8669 327.64 73.9111 334.61 72.0016 330.046C70.1156 325.537 79.5947 319.359 85.5949 317.539Z" fill="#3F9385"/>
</svg>
